# xmcd
#
# Track frame offsets:
#	150
#	14447
#	28933
#	44254
#	58669
#	72722
#	86367
#	100529
#	114258
#	126018
#	138482
#	151996
#	162850
#	176300
#	189664
#	203578
#	216905
#	230275
#	243789
#	257211
#	269714
#	284517
#	299209
#	312169
#	324699
#
# Disc length: 4505 seconds
# Revision: 0
# Processed by: cddbd v1.5.2PL0 Copyright (c) Steve Scherf et al.
# Submitted via: dBpowerAMP V12.0
#
DISCID=75119719
DTITLE=Various Artist - Bo Carter and The Mississippi Sheiks disc 3
DYEAR=2011
DGENRE=Blues
TTITLE0=Mississippi Sheiks - I Am the Devil
TTITLE1=Mississippi Sheiks - She's Got Something Crazy
TTITLE2=Mississippi Sheiks - You'll Work Down to Me Someday
TTITLE3=Mississippi Sheiks - Somebody's Got to Help Me
TTITLE4=Mississippi Sheiks - Sales Tax
TTITLE5=Mississippi Sheiks - Lean To One Woman
TTITLE6=Mississippi Sheiks - I Can't Go Wrong
TTITLE7=Mississippi Sheiks - Dead Wagon Blues
TTITLE8=Mississippi Sheiks - She's Going to Her Lonesome Grave
TTITLE9=Mississippi Sheiks - Fingering With Your Fingers
TTITLE10=Bo Carter - Don't Cross Lay Your Daddy
TTITLE11=Bo Carter - Don't Do It No More
TTITLE12=Bo Carter - Old Shoe Blues
TTITLE13=Bo Carter - Let Me Roll Your Lemon
TTITLE14=Bo Carter - To Her Burying Ground
TTITLE15=Bo Carter - When Your Left Eye Go To Jumping
TTITLE16=Bo Carter - Spotted Sow Blues
TTITLE17=Bo Carter - All Around Man
TTITLE18=Bo Carter - You Better Know Your Business
TTITLE19=Bo Carter - Dinner Blues
TTITLE20=Bo Carter - Cigarette Blues
TTITLE21=Chatman Brothers - If You Don't Want Me, Please Don't Dog Me Around
TTITLE22=Chatman Brothers - Wake Me Just Before Day
TTITLE23=Chatman Brothers - Stir It Now
TTITLE24=Chatman Brothers - Please Don't Give My Love Away
EXTD=
EXTT0=
EXTT1=
EXTT2=
EXTT3=
EXTT4=
EXTT5=
EXTT6=
EXTT7=
EXTT8=
EXTT9=
EXTT10=
EXTT11=
EXTT12=
EXTT13=
EXTT14=
EXTT15=
EXTT16=
EXTT17=
EXTT18=
EXTT19=
EXTT20=
EXTT21=
EXTT22=
EXTT23=
EXTT24=
PLAYORDER=
